<svg width="512" height="512" viewBox="0 0 512 512" fill="none" xmlns="http://www.w3.org/2000/svg">
  <rect width="512" height="512" rx="128" fill="#2563EB"/>
  <path d="M256 64C200 64 160 96 128 128C96 160 64 200 64 256C64 370.5 160 448 256 448C352 448 448 370.5 448 256C448 200 416 160 384 128C352 96 312 64 256 64ZM256 96C304 96 336 128 360 152C384 176 400 208 400 256C400 336 336 400 256 400C176 400 112 336 112 256C112 208 128 176 152 152C176 128 208 96 256 96Z" fill="white"/>
  <path d="M256 128C216 128 192 160 176 192C160 224 160 256 160 288C160 320 176 352 208 352C240 352 272 320 288 288C304 256 304 224 288 192C272 160 288 128 256 128Z" fill="white"/>
</svg>
